Coordinates
version=1
nRows=24
nColumns=24
inDegrees=yes

Units are S.I. units (second, meters, Newtons, ...)
Angles are in degrees.

endheader
time	pelvis_tilt	pelvis_list	pelvis_rotation	pelvis_tx	pelvis_ty	pelvis_tz	hip_flexion_r	hip_adduction_r	hip_rotation_r	knee_angle_r	ankle_angle_r	subtalar_angle_r	mtp_angle_r	hip_flexion_l	hip_adduction_l	hip_rotation_l	knee_angle_l	ankle_angle_l	subtalar_angle_l	mtp_angle_l	lumbar_extension	lumbar_bending	lumbar_rotation
      0.01000000	     45.72573297	     -3.36603773	     -0.49249622	      0.57032100	      1.08644505	     -0.33966949	     26.64406482	     -7.48069354	     -7.74320903	    -73.13645059	    -27.12303403	    -19.39105595	      0.00000000	     31.24944622	    -14.02365079	     -9.26518709	    -18.12414635	    -29.65283218	     14.20973405	      0.00000000	      0.00000000	      0.00000000	      0.00000000
      0.02000000	     45.68284949	     -3.36269775	     -0.46719392	      0.57041754	      1.08652646	     -0.33968676	     26.67606537	     -7.49513976	     -7.77021508	    -73.13689878	    -27.11362675	    -19.38414618	      0.00000000	     31.29310463	    -14.01005478	     -9.25095804	    -18.12116287	    -29.66147425	     14.19303128	      0.00000000	      0.00000000	      0.00000000	      0.00000000
      0.03000000	     45.63922940	     -3.36076886	     -0.44348551	      0.57052308	      1.08657971	     -0.33970065	     26.70753065	     -7.50826630	     -7.79584083	    -73.13811805	    -27.10450776	    -19.37811614	      0.00000000	     31.33572110	    -13.99481859	     -9.23698014	    -18.12012293	    -29.67108603	     14.17779234	      0.00000000	      0.00000000	      0.00000000	      0.00000000
      0.04000000	     45.59992968	     -3.36067496	     -0.42427734	      0.57060881	      1.08658604	     -0.33971222	     26.73807675	     -7.51944866	     -7.81797549	    -73.14002701	    -27.09654826	    -19.37357793	      0.00000000	     31.37614284	    -13.97988714	     -9.22360961	    -18.12115088	    -29.68151892	     14.16523931	      0.00000000	      0.00000000	      0.00000000	      0.00000000
      0.05000000	     45.56848190	     -3.36167396	     -0.41114121	      0.57065904	      1.08655778	     -0.33972237	     26.76618247	     -7.52811481	     -7.83450055	    -73.14251729	    -27.09083003	    -19.37118896	      0.00000000	     31.41212961	    -13.96803371	     -9.21143854	    -18.12422959	    -29.69223979	     14.15667193	      0.00000000	      0.00000000	      0.00000000	      0.00000000
      0.06000000	     45.54566229	     -3.36234822	     -0.40367892	      0.57067414	      1.08652594	     -0.33973174	     26.78958613	     -7.53395131	     -7.84432853	    -73.14543624	    -27.08824698	    -19.37142996	      0.00000000	     31.44114075	    -13.96146143	     -9.20127635	    -18.12888529	    -29.70224252	     14.15284825	      0.00000000	      0.00000000	      0.00000000	      0.00000000
      0.07000000	     45.53065725	     -3.36216293	     -0.40053304	      0.57067027	      1.08650725	     -0.33973685	     26.80650804	     -7.53691881	     -7.84793982	    -73.14856304	    -27.08909760	    -19.37449385	      0.00000000	     31.46149209	    -13.96014437	     -9.19404554	    -18.13406323	    -29.71018763	     14.15359188	      0.00000000	      0.00000000	      0.00000000	      0.00000000
      0.08000000	     45.52241019	     -3.36177158	     -0.40038661	      0.57066760	      1.08649808	     -0.33973402	     26.81658465	     -7.53728210	     -7.84711757	    -73.15167089	    -27.09285248	    -19.38024278	      0.00000000	     31.47302844	    -13.96196938	     -9.19039879	    -18.13838626	    -29.71476392	     14.15784548	      0.00000000	      0.00000000	      0.00000000	      0.00000000
      0.09000000	     45.51968119	     -3.36188383	     -0.40222954	      0.57067161	      1.08649272	     -0.33972641	     26.82074807	     -7.53569116	     -7.84403359	    -73.15464155	    -27.09824124	    -19.38817223	      0.00000000	     31.47698565	    -13.96446282	     -9.19022180	    -18.14070909	    -29.71511724	     14.16415277	      0.00000000	      0.00000000	      0.00000000	      0.00000000
      0.10000000	     45.52057369	     -3.36261054	     -0.40529894	      0.57067875	      1.08649032	     -0.33971858	     26.82057552	     -7.53310207	     -7.84028889	    -73.15743734	    -27.10364213	    -19.39738764	      0.00000000	     31.47537178	    -13.96593784	     -9.19245675	    -18.14065816	    -29.71114051	     14.17129996	      0.00000000	      0.00000000	      0.00000000	      0.00000000
      0.11000000	     45.52270368	     -3.36364178	     -0.40897977	      0.57069137	      1.08649104	     -0.33971105	     26.81792850	     -7.53050129	     -7.83649922	    -73.15994784	    -27.10760414	    -19.40665573	      0.00000000	     31.47042430	    -13.96564081	     -9.19536938	    -18.13878854	    -29.70350372	     14.17877264	      0.00000000	      0.00000000	      0.00000000	      0.00000000
      0.12000000	     45.52393729	     -3.36443589	     -0.41269775	      0.57071032	      1.08649552	     -0.33970472	     26.81482900	     -7.52860280	     -7.83255050	    -73.16196013	    -27.10928316	    -19.41457872	      0.00000000	     31.46439313	    -13.96372896	     -9.19707472	    -18.13621689	    -29.69342973	     14.18680752	      0.00000000	      0.00000000	      0.00000000	      0.00000000
      0.13000000	     45.52310589	     -3.36449815	     -0.41596438	      0.57072582	      1.08650355	     -0.33970088	     26.81318272	     -7.52764107	     -7.82817778	    -73.16332074	    -27.10861826	    -19.41988603	      0.00000000	     31.45951725	    -13.96102483	     -9.19612773	    -18.13393314	    -29.68231963	     14.19604074	      0.00000000	      0.00000000	      0.00000000	      0.00000000
      0.14000000	     45.52015717	     -3.36384172	     -0.41863739	      0.57073058	      1.08651108	     -0.33969759	     26.81430569	     -7.52729979	     -7.82343044	    -73.16414869	    -27.10620762	    -19.42177744	      0.00000000	     31.45777647	    -13.95838346	     -9.19196160	    -18.13226706	    -29.67139508	     14.20695690	      0.00000000	      0.00000000	      0.00000000	      0.00000000
      0.15000000	     45.51558838	     -3.36305461	     -0.42098839	      0.57073161	      1.08651241	     -0.33969261	     26.81856434	     -7.52693396	     -7.81872013	    -73.16489119	    -27.10298907	    -19.42019388	      0.00000000	     31.46023072	    -13.95635200	     -9.18497863	    -18.13087634	    -29.66152468	     14.21942707	      0.00000000	      0.00000000	      0.00000000	      0.00000000
      0.16000000	     45.50973290	     -3.36290039	     -0.42338460	      0.57073874	      1.08650646	     -0.33968588	     26.82542851	     -7.52607426	     -7.81451131	    -73.16609973	    -27.09987314	    -19.41588696	      0.00000000	     31.46640757	    -13.95533227	     -9.17635766	    -18.12918448	    -29.65329555	     14.23256199	      0.00000000	      0.00000000	      0.00000000	      0.00000000
      0.17000000	     45.50264123	     -3.36386908	     -0.42603188	      0.57075220	      1.08649840	     -0.33967911	     26.83383495	     -7.52473882	     -7.81106009	    -73.16806846	    -27.09745356	    -19.41023247	      0.00000000	     31.47444405	    -13.95560780	     -9.16779917	    -18.12685137	    -29.64722408	     14.24494264	      0.00000000	      0.00000000	      0.00000000	      0.00000000
      0.18000000	     45.49463578	     -3.36591044	     -0.42897492	      0.57076846	      1.08649516	     -0.33967395	     26.84254586	     -7.52330302	     -7.80835643	    -73.17058168	    -27.09588849	    -19.40483802	      0.00000000	     31.48212696	    -13.95706769	     -9.16125788	    -18.12392129	    -29.64389853	     14.25511778	      0.00000000	      0.00000000	      0.00000000	      0.00000000
      0.19000000	     45.48673810	     -3.36829195	     -0.43212023	      0.57078574	      1.08649827	     -0.33967131	     26.85032191	     -7.52212005	     -7.80619187	    -73.17294480	    -27.09497883	    -19.40108063	      0.00000000	     31.48805346	    -13.95912435	     -9.15851982	    -18.12067964	    -29.64388268	     14.26216038	      0.00000000	      0.00000000	      0.00000000	      0.00000000
      0.20000000	     45.48038994	     -3.36985322	     -0.43525965	      0.57080123	      1.08650098	     -0.33967254	     26.85604258	     -7.52123054	     -7.80430952	    -73.17430825	    -27.09436787	    -19.39975178	      0.00000000	     31.49201873	    -13.96093631	     -9.16060793	    -18.11742809	    -29.64736177	     14.26606394	      0.00000000	      0.00000000	      0.00000000	      0.00000000
      0.21000000	     45.47673518	     -3.36993942	     -0.43815818	      0.57080959	      1.08649925	     -0.33967451	     26.85896936	     -7.52045483	     -7.80252152	    -73.17412346	    -27.09374862	    -19.40093703	      0.00000000	     31.49452347	    -13.96167739	     -9.16724585	    -18.11429333	    -29.65370617	     14.26781149	      0.00000000	      0.00000000	      0.00000000	      0.00000000
      0.22000000	     45.47599775	     -3.36901616	     -0.44063049	      0.57080524	      1.08650188	     -0.33966768	     26.85903561	     -7.51967560	     -7.80078590	    -73.17249863	    -27.09301220	    -19.40412386	      0.00000000	     31.49598516	    -13.96097400	     -9.17666180	    -18.11110208	    -29.66126121	     14.26905585	      0.00000000	      0.00000000	      0.00000000	      0.00000000
      0.23000000	     45.47727075	     -3.36808323	     -0.44254439	      0.57079234	      1.08651779	     -0.33964978	     26.85694003	     -7.51893352	     -7.79930342	    -73.17022350	    -27.09229904	    -19.40844522	      0.00000000	     31.49621078	    -13.95947160	     -9.18596542	    -18.10743966	    -29.66763947	     14.27150444	      0.00000000	      0.00000000	      0.00000000	      0.00000000
      0.24000000	     45.47887972	     -3.36776047	     -0.44380884	      0.57078852	      1.08653719	     -0.33963517	     26.85393461	     -7.51832633	     -7.79852870	    -73.16841008	    -27.09191890	    -19.41296587	      0.00000000	     31.49457133	    -13.95873681	     -9.19219733	    -18.10295327	    -29.67055016	     14.27622916	      0.00000000	      0.00000000	      0.00000000	      0.00000000
